<svg width="310" height="512" viewBox="0 0 310 512" fill="none" xmlns="http://www.w3.org/2000/svg">
<path d="M310 481.691C310 487.214 305.523 491.691 300 491.691H10C4.47717 491.691 8.10623e-06 487.214 8.10623e-06 481.691V10.3825C8.10623e-06 4.59691 4.89496 0.0185657 10.6677 0.404848L300.668 19.8103C305.92 20.1617 310 24.5243 310 29.7879V481.691Z" fill="white"/>
<path d="M0 30.691C0 25.1682 4.47715 20.691 10 20.691H300C305.523 20.691 310 25.1682 310 30.691V502C310 507.785 305.105 512.363 299.332 511.977L9.33235 492.572C4.0804 492.22 0 487.858 0 482.594V30.691Z" fill="white"/>
</svg>
