<svg width="137" height="45" viewBox="0 0 137 45" fill="none" xmlns="http://www.w3.org/2000/svg">
<path d="M4.74663 17.0015H7.5019V11.9613H10.6156C14.0653 11.9613 16.8878 10.1245 16.8878 6.60759C16.8878 3.4043 14.5805 1.32105 10.9292 1.32105H4.74663V17.0015ZM7.5019 9.47486V3.82991H10.7052C12.766 3.82991 14.0877 4.79314 14.0877 6.62999C14.0877 8.31003 12.7884 9.47486 10.7052 9.47486H7.5019Z" fill="white"/>
<path d="M60.7447 17H63.4552V5.7997L68.3609 13.1471H68.4505L73.4011 5.7549V17H76.1563V1.31958H73.2219L68.4505 8.73418L63.6792 1.31958H60.7447V17Z" fill="white"/>
<path d="M128.708 17.2688C131.486 17.2688 133.704 16.1488 135.249 14.8271V8.24137H128.574V10.6382H132.584V13.5727C131.62 14.2895 130.276 14.7599 128.798 14.7599C125.595 14.7599 123.467 12.3855 123.467 9.15979C123.467 6.11331 125.662 3.58204 128.552 3.58204C130.545 3.58204 131.732 4.23166 132.942 5.26209L134.689 3.17883C133.076 1.81239 131.396 1.05077 128.664 1.05077C123.937 1.05077 120.577 4.76927 120.577 9.15979C120.577 13.7743 123.803 17.2688 128.708 17.2688Z" fill="white"/>
<path d="M1.65957 35.5398H3.05916C3.86166 35.5398 4.40303 35.5748 4.68326 35.6449C5.08451 35.7436 5.41252 35.9474 5.66728 36.2563C5.92204 36.562 6.04942 36.9473 6.04942 37.4123C6.04942 37.8804 5.92522 38.2673 5.67683 38.573C5.42844 38.8756 5.08611 39.0794 4.64983 39.1845C4.33138 39.2609 3.73587 39.2991 2.86332 39.2991H2.36176V42.5664H1.65957V35.5398ZM2.36176 36.2229V38.6112L3.55117 38.6256C4.03203 38.6256 4.38392 38.5826 4.60684 38.4966C4.82975 38.4074 5.0049 38.2657 5.13228 38.0715C5.25966 37.874 5.32335 37.6543 5.32335 37.4123C5.32335 37.1766 5.25966 36.9617 5.13228 36.7674C5.0049 36.57 4.83612 36.4299 4.62594 36.3471C4.41895 36.2643 4.07821 36.2229 3.60372 36.2229H2.36176ZM7.09076 37.3693H7.77383V38.1288C7.97764 37.8294 8.1926 37.6065 8.4187 37.46C8.6448 37.3104 8.88045 37.2355 9.12566 37.2355C9.31036 37.2355 9.5078 37.2944 9.71798 37.4123L9.36927 37.9759C9.22915 37.9154 9.11133 37.8852 9.01579 37.8852C8.79288 37.8852 8.57792 37.9775 8.37093 38.1622C8.16394 38.3437 8.0063 38.6272 7.89803 39.0125C7.81523 39.3087 7.77383 39.9073 7.77383 40.8086V42.5664H7.09076V37.3693ZM12.7464 37.2355C13.5458 37.2355 14.2081 37.5253 14.7336 38.1049C15.2113 38.6335 15.4501 39.2593 15.4501 39.9822C15.4501 40.7082 15.1969 41.3436 14.6906 41.8881C14.1874 42.4295 13.5394 42.7002 12.7464 42.7002C11.9503 42.7002 11.2991 42.4295 10.7927 41.8881C10.2896 41.3436 10.038 40.7082 10.038 39.9822C10.038 39.2625 10.2769 38.6383 10.7545 38.1097C11.28 37.5269 11.944 37.2355 12.7464 37.2355ZM12.7464 37.89C12.1923 37.89 11.7163 38.0954 11.3182 38.5062C10.9201 38.917 10.7211 39.4137 10.7211 39.9965C10.7211 40.3723 10.8119 40.7226 10.9934 41.0474C11.1749 41.3722 11.4201 41.6238 11.729 41.8021C12.0379 41.9773 12.377 42.0648 12.7464 42.0648C13.1159 42.0648 13.455 41.9773 13.7639 41.8021C14.0728 41.6238 14.318 41.3722 14.4995 41.0474C14.681 40.7226 14.7718 40.3723 14.7718 39.9965C14.7718 39.4137 14.5712 38.917 14.1699 38.5062C13.7719 38.0954 13.2974 37.89 12.7464 37.89ZM16.9452 35.2293C17.0981 35.2293 17.2271 35.2834 17.3321 35.3917C17.4404 35.5 17.4946 35.6305 17.4946 35.7834C17.4946 35.9331 17.4404 36.062 17.3321 36.1703C17.2271 36.2786 17.0981 36.3327 16.9452 36.3327C16.7924 36.3327 16.6618 36.2786 16.5535 36.1703C16.4484 36.062 16.3959 35.9331 16.3959 35.7834C16.3959 35.6305 16.4484 35.5 16.5535 35.3917C16.6618 35.2834 16.7924 35.2293 16.9452 35.2293ZM16.6156 37.3693H17.2939V43.3498C17.2939 43.7861 17.2143 44.1029 17.0551 44.3004C16.899 44.501 16.6841 44.6013 16.4102 44.6013C16.1841 44.6013 15.9294 44.5472 15.6459 44.4389V43.837C15.8243 43.9294 15.9851 43.9756 16.1284 43.9756C16.3099 43.9756 16.4453 43.9007 16.5344 43.751C16.5886 43.6555 16.6156 43.4565 16.6156 43.1539V37.3693ZM23.0595 40.842L23.6231 41.1382C23.4384 41.5012 23.2251 41.7942 22.9831 42.0171C22.741 42.24 22.4688 42.4104 22.1662 42.5282C21.8637 42.6428 21.5214 42.7002 21.1392 42.7002C20.2921 42.7002 19.6298 42.4231 19.1521 41.869C18.6744 41.3117 18.4356 40.6828 18.4356 39.9822C18.4356 39.323 18.6378 38.7354 19.0422 38.2195C19.5549 37.5635 20.2412 37.2355 21.101 37.2355C21.9863 37.2355 22.6933 37.5715 23.2219 38.2434C23.5977 38.7179 23.7887 39.3102 23.7951 40.0204H19.1234C19.1362 40.6254 19.3288 41.1222 19.7014 41.5107C20.074 41.8961 20.5342 42.0887 21.0819 42.0887C21.3462 42.0887 21.6026 42.0426 21.851 41.9502C22.1025 41.8579 22.3159 41.7352 22.4911 41.5824C22.6662 41.4295 22.8557 41.1827 23.0595 40.842ZM23.0595 39.4424C22.9703 39.0857 22.8398 38.8007 22.6678 38.5874C22.499 38.374 22.2745 38.202 21.9943 38.0715C21.714 37.9409 21.4195 37.8756 21.1106 37.8756C20.601 37.8756 20.1632 38.0396 19.797 38.3676C19.5295 38.6065 19.3272 38.9647 19.1903 39.4424H23.0595ZM30.0909 38.4488L29.5607 38.7784C29.1021 38.1702 28.4763 37.8661 27.6834 37.8661C27.0497 37.8661 26.5226 38.0699 26.1023 38.4775C25.6851 38.8851 25.4765 39.3803 25.4765 39.9631C25.4765 40.342 25.5721 40.6987 25.7631 41.0331C25.9574 41.3674 26.2217 41.627 26.5561 41.8117C26.8936 41.9964 27.271 42.0887 27.6882 42.0887C28.4525 42.0887 29.0766 41.7846 29.5607 41.1764L30.0909 41.5251C29.8425 41.8977 29.5081 42.1874 29.0878 42.3944C28.6706 42.5983 28.1945 42.7002 27.6595 42.7002C26.8379 42.7002 26.1564 42.439 25.6151 41.9168C25.0737 41.3945 24.803 40.7592 24.803 40.0108C24.803 39.5077 24.9288 39.0412 25.1804 38.6112C25.4351 38.1782 25.7838 37.8406 26.2265 37.5986C26.6691 37.3565 27.1643 37.2355 27.7121 37.2355C28.056 37.2355 28.3872 37.2881 28.7056 37.3932C29.0273 37.4983 29.2995 37.6352 29.5225 37.804C29.7454 37.9727 29.9348 38.1877 30.0909 38.4488ZM31.9634 35.4395H32.6369V37.3693H33.6973V37.9425H32.6369V42.5664H31.9634V37.9425H31.051V37.3693H31.9634V35.4395Z" fill="white"/>
<path d="M38.1035 35.4917H39.4208L41.0554 40.4245L42.7141 35.4917H44.0122L45.2045 42.564H43.9064L43.1468 38.0975L41.642 42.564H40.4545L38.9689 38.0975L38.1948 42.564H36.8823L38.1035 35.4917ZM48.4402 35.4917H49.8056L52.5268 42.564H51.1277L50.5748 41.1072H47.6902L47.1132 42.564H45.7142L48.4402 35.4917ZM49.1325 37.3668L48.1902 39.7947H50.07L49.1325 37.3668ZM53.5797 35.4917H54.8682L57.9019 40.1457V35.4917H59.2481V42.564H57.9548L54.9259 37.9245V42.564H53.5797V35.4917ZM64.5847 37.3331H65.8924V42.564H64.5847V42.0111C64.3283 42.2547 64.0703 42.4309 63.8106 42.5399C63.5542 42.6457 63.2754 42.6986 62.9741 42.6986C62.2978 42.6986 61.7129 42.4374 61.2193 41.9149C60.7257 41.3893 60.4789 40.737 60.4789 39.9581C60.4789 39.1504 60.7176 38.4886 61.1952 37.9725C61.6728 37.4565 62.2529 37.1985 62.9356 37.1985C63.2497 37.1985 63.5446 37.2578 63.8203 37.3764C64.0959 37.495 64.3507 37.6729 64.5847 37.91V37.3331ZM63.2049 38.41C62.7978 38.41 62.4597 38.5543 62.1904 38.8427C61.9212 39.128 61.7866 39.495 61.7866 39.9437C61.7866 40.3957 61.9228 40.7675 62.1952 41.0591C62.4709 41.3508 62.809 41.4966 63.2097 41.4966C63.6231 41.4966 63.9661 41.354 64.2385 41.0687C64.511 40.7803 64.6472 40.4037 64.6472 39.9389C64.6472 39.4838 64.511 39.1152 64.2385 38.8331C63.9661 38.5511 63.6215 38.41 63.2049 38.41ZM71.0848 37.3331H72.3925V41.814C72.3925 42.6986 72.2146 43.3492 71.8589 43.7659C71.3813 44.33 70.6617 44.6121 69.7002 44.6121C69.1873 44.6121 68.7562 44.548 68.4069 44.4198C68.0575 44.2916 67.7626 44.1025 67.5223 43.8524C67.2819 43.6057 67.104 43.3044 66.9886 42.9486H68.4357C68.5639 43.096 68.729 43.2066 68.9309 43.2803C69.1329 43.3572 69.3716 43.3957 69.6473 43.3957C69.9999 43.3957 70.2835 43.3412 70.4983 43.2322C70.713 43.1233 70.8637 42.9822 70.9502 42.8092C71.0399 42.6361 71.0848 42.338 71.0848 41.9149C70.854 42.1457 70.6121 42.3124 70.3588 42.4149C70.1056 42.5143 69.8188 42.564 69.4982 42.564C68.7963 42.564 68.2034 42.3108 67.7194 41.8043C67.2354 41.2979 66.9934 40.6569 66.9934 39.8812C66.9934 39.0511 67.2498 38.3844 67.7626 37.8812C68.2274 37.4261 68.7819 37.1985 69.4261 37.1985C69.7274 37.1985 70.0111 37.2546 70.2771 37.3668C70.5463 37.4757 70.8156 37.6568 71.0848 37.91V37.3331ZM69.7242 38.4245C69.3107 38.4245 68.9694 38.5639 68.7002 38.8427C68.4309 39.1184 68.2963 39.4662 68.2963 39.886C68.2963 40.3219 68.4341 40.6793 68.7098 40.9582C68.9854 41.237 69.3316 41.3764 69.7483 41.3764C70.1553 41.3764 70.4903 41.2402 70.7531 40.9678C71.0191 40.6953 71.1521 40.338 71.1521 39.8956C71.1521 39.4597 71.0191 39.1056 70.7531 38.8331C70.487 38.5607 70.1441 38.4245 69.7242 38.4245ZM78.96 40.3283H74.7435C74.8044 40.7001 74.9663 40.9966 75.2291 41.2178C75.4952 41.4357 75.8333 41.5447 76.2436 41.5447C76.734 41.5447 77.1554 41.3732 77.508 41.0303L78.6138 41.5495C78.3382 41.9406 78.008 42.2306 77.6234 42.4197C77.2388 42.6056 76.782 42.6986 76.2532 42.6986C75.4327 42.6986 74.7644 42.4406 74.2483 41.9245C73.7323 41.4053 73.4743 40.7562 73.4743 39.9774C73.4743 39.1793 73.7307 38.5174 74.2435 37.9918C74.7596 37.4629 75.4054 37.1985 76.1811 37.1985C77.0048 37.1985 77.6747 37.4629 78.1907 37.9918C78.7068 38.5174 78.9648 39.2129 78.9648 40.0783L78.96 40.3283ZM77.6426 39.2947C77.5561 39.003 77.3846 38.7658 77.1282 38.5831C76.875 38.4004 76.5801 38.3091 76.2436 38.3091C75.8782 38.3091 75.5577 38.4116 75.282 38.6168C75.1089 38.745 74.9487 38.971 74.8012 39.2947H77.6426ZM80.0177 37.3331H81.335V37.9341C81.5594 37.6873 81.8078 37.503 82.0802 37.3812C82.3559 37.2594 82.6555 37.1985 82.9793 37.1985C83.3062 37.1985 83.6011 37.2786 83.8639 37.4389C84.1267 37.5991 84.3383 37.8331 84.4985 38.1408C84.7069 37.8331 84.9617 37.5991 85.263 37.4389C85.5674 37.2786 85.8992 37.1985 86.2582 37.1985C86.63 37.1985 86.9569 37.285 87.239 37.4581C87.521 37.6312 87.7229 37.8571 87.8447 38.136C87.9697 38.4149 88.0322 38.8684 88.0322 39.4966V42.564H86.7101V39.9101C86.7101 39.3171 86.6364 38.9165 86.4889 38.7081C86.3415 38.4966 86.1203 38.3908 85.8255 38.3908C85.6011 38.3908 85.3992 38.4549 85.2197 38.5831C85.0434 38.7113 84.912 38.8892 84.8254 39.1168C84.7389 39.3412 84.6956 39.7033 84.6956 40.2033V42.564H83.3735V40.0303C83.3735 39.5623 83.3382 39.2242 83.2677 39.0158C83.2004 38.8043 83.0979 38.6472 82.96 38.5447C82.8222 38.4421 82.6555 38.3908 82.46 38.3908C82.2421 38.3908 82.0433 38.4565 81.8639 38.5879C81.6876 38.7161 81.5546 38.8972 81.4648 39.1312C81.3783 39.3652 81.335 39.7338 81.335 40.237V42.564H80.0177V37.3331ZM94.5275 40.3283H90.3111C90.372 40.7001 90.5339 40.9966 90.7967 41.2178C91.0627 41.4357 91.4009 41.5447 91.8112 41.5447C92.3015 41.5447 92.723 41.3732 93.0756 41.0303L94.1814 41.5495C93.9057 41.9406 93.5756 42.2306 93.191 42.4197C92.8064 42.6056 92.3496 42.6986 91.8208 42.6986C91.0002 42.6986 90.332 42.4406 89.8159 41.9245C89.2999 41.4053 89.0419 40.7562 89.0419 39.9774C89.0419 39.1793 89.2983 38.5174 89.8111 37.9918C90.3272 37.4629 90.973 37.1985 91.7487 37.1985C92.5724 37.1985 93.2423 37.4629 93.7583 37.9918C94.2743 38.5174 94.5324 39.2129 94.5324 40.0783L94.5275 40.3283ZM93.2102 39.2947C93.1237 39.003 92.9522 38.7658 92.6958 38.5831C92.4426 38.4004 92.1477 38.3091 91.8112 38.3091C91.4458 38.3091 91.1252 38.4116 90.8496 38.6168C90.6765 38.745 90.5163 38.971 90.3688 39.2947H93.2102ZM95.5949 37.3331H96.9026V37.8668C97.2007 37.6168 97.4699 37.4437 97.7103 37.3475C97.9539 37.2482 98.2023 37.1985 98.4555 37.1985C98.9747 37.1985 99.4155 37.3796 99.7776 37.7418C100.082 38.0495 100.234 38.5046 100.234 39.1072V42.564H98.9363V40.2707C98.9363 39.6456 98.9074 39.2306 98.8497 39.0254C98.7953 38.8203 98.6975 38.6649 98.5565 38.5591C98.4186 38.4501 98.2472 38.3956 98.042 38.3956C97.776 38.3956 97.5468 38.4854 97.3545 38.6649C97.1654 38.8411 97.034 39.0863 96.9603 39.4004C96.9218 39.5639 96.9026 39.9181 96.9026 40.463V42.564H95.5949V37.3331ZM101.667 35.4052H102.975V37.3331H103.754V38.4629H102.975V42.564H101.667V38.4629H100.994V37.3331H101.667V35.4052Z" fill="white"/>
<path d="M113.602 36.6451L113.051 37.1674C112.654 36.7773 112.219 36.4823 111.745 36.2825C111.274 36.0794 110.815 35.9778 110.367 35.9778C109.809 35.9778 109.277 36.1148 108.771 36.3888C108.268 36.6629 107.878 37.0352 107.601 37.5059C107.324 37.9733 107.185 38.4682 107.185 38.9904C107.185 39.5256 107.329 40.0349 107.615 40.5185C107.902 40.9988 108.299 41.3776 108.805 41.6549C109.311 41.9289 109.866 42.0659 110.468 42.0659C111.2 42.0659 111.819 41.8596 112.325 41.4469C112.832 41.0343 113.131 40.4991 113.225 39.8415H110.957V39.1548H114.023C114.016 40.2541 113.689 41.1278 113.041 41.7758C112.396 42.4205 111.532 42.7429 110.449 42.7429C109.134 42.7429 108.093 42.2948 107.325 41.3986C106.735 40.7087 106.44 39.9108 106.44 39.0049C106.44 38.3312 106.61 37.7041 106.948 37.1239C107.287 36.5436 107.751 36.0906 108.341 35.765C108.931 35.4362 109.598 35.2718 110.343 35.2718C110.946 35.2718 111.513 35.3814 112.045 35.6006C112.577 35.8166 113.096 36.1648 113.602 36.6451ZM115.009 37.3028H115.701V38.0716C115.907 37.7686 116.125 37.5429 116.353 37.3947C116.582 37.2431 116.821 37.1674 117.069 37.1674C117.256 37.1674 117.456 37.227 117.669 37.3463L117.316 37.9169C117.174 37.8556 117.055 37.825 116.958 37.825C116.732 37.825 116.515 37.9185 116.305 38.1055C116.096 38.2892 115.936 38.5762 115.826 38.9662C115.743 39.266 115.701 39.8721 115.701 40.7844V42.564H115.009V37.3028ZM120.735 37.1674C121.544 37.1674 122.214 37.4607 122.746 38.0475C123.23 38.5826 123.472 39.2161 123.472 39.9479C123.472 40.6829 123.215 41.326 122.703 41.8773C122.193 42.4253 121.537 42.6994 120.735 42.6994C119.929 42.6994 119.269 42.4253 118.757 41.8773C118.247 41.326 117.993 40.6829 117.993 39.9479C117.993 39.2193 118.235 38.5874 118.718 38.0523C119.25 37.4623 119.922 37.1674 120.735 37.1674ZM120.735 37.8299C120.174 37.8299 119.692 38.0378 119.289 38.4537C118.886 38.8695 118.684 39.3724 118.684 39.9624C118.684 40.3428 118.776 40.6974 118.96 41.0262C119.144 41.3551 119.392 41.6097 119.705 41.7903C120.017 41.9676 120.361 42.0562 120.735 42.0562C121.109 42.0562 121.452 41.9676 121.765 41.7903C122.077 41.6097 122.326 41.3551 122.509 41.0262C122.693 40.6974 122.785 40.3428 122.785 39.9624C122.785 39.3724 122.582 38.8695 122.176 38.4537C121.773 38.0378 121.292 37.8299 120.735 37.8299ZM124.647 37.3028H125.328V39.7593C125.328 40.3589 125.361 40.7715 125.425 40.9972C125.522 41.3196 125.706 41.5743 125.976 41.7612C126.25 41.9482 126.576 42.0417 126.953 42.0417C127.33 42.0417 127.65 41.9514 127.911 41.7709C128.175 41.5872 128.357 41.347 128.457 41.0504C128.525 40.8473 128.559 40.4169 128.559 39.7593V37.3028H129.25V39.885C129.25 40.6104 129.165 41.1568 128.994 41.5243C128.826 41.8918 128.572 42.1803 128.23 42.3899C127.891 42.5962 127.466 42.6994 126.953 42.6994C126.441 42.6994 126.012 42.5962 125.667 42.3899C125.325 42.1803 125.069 41.8902 124.898 41.5195C124.73 41.1455 124.647 40.5846 124.647 39.8367V37.3028ZM130.769 37.3028H131.441V38.2699C131.708 37.9024 132.016 37.6268 132.364 37.443C132.712 37.2593 133.101 37.1674 133.53 37.1674C134.278 37.1674 134.918 37.4366 135.449 37.9749C135.981 38.5133 136.247 39.1613 136.247 39.9189C136.247 40.6926 135.983 41.3502 135.454 41.8918C134.929 42.4302 134.294 42.6994 133.549 42.6994C133.13 42.6994 132.745 42.6123 132.393 42.4382C132.042 42.2642 131.724 42.0046 131.441 41.6597V44.4886H130.769V37.3028ZM133.477 37.8202C132.89 37.8202 132.395 38.0249 131.992 38.4343C131.592 38.8437 131.392 39.3531 131.392 39.9624C131.392 40.3621 131.481 40.7216 131.658 41.0407C131.839 41.3599 132.095 41.613 132.427 41.7999C132.762 41.9869 133.115 42.0804 133.486 42.0804C133.85 42.0804 134.192 41.9869 134.511 41.7999C134.834 41.6097 135.09 41.3454 135.28 41.0069C135.47 40.6684 135.566 40.3138 135.566 39.943C135.566 39.5691 135.47 39.2145 135.28 38.8792C135.093 38.5439 134.84 38.2844 134.521 38.1007C134.202 37.9137 133.854 37.8202 133.477 37.8202Z" fill="white"/>
<line x1="29.477" y1="26.5871" x2="108.327" y2="26.5871" stroke="white" stroke-width="0.896024"/>
</svg>
