<svg width="299" height="173" viewBox="0 0 299 173" fill="none" xmlns="http://www.w3.org/2000/svg">
<path d="M0 168.159H237.371L256.706 101.364L287.76 147.066V27.5383H280.143L289.518 0L298.893 27.5383H291.276V158.784L258.464 110.153L240.301 172.261H0V168.159Z" fill="white"/>
<path d="M52.6896 68.8755H56.293V62.2839H60.3651C64.8767 62.2839 68.568 59.8816 68.568 55.2821C68.568 51.0928 65.5505 48.3683 60.7753 48.3683H52.6896V68.8755ZM56.293 59.032V51.6494H60.4823C63.1776 51.6494 64.906 52.9092 64.906 55.3114C64.906 57.5086 63.2069 59.032 60.4823 59.032H56.293Z" fill="white"/>
<path d="M125.927 68.8735H129.472V54.2255L135.888 63.8346H136.005L142.479 54.1669V68.8735H146.083V48.3663H142.245L136.005 58.0633L129.765 48.3663H125.927V68.8735Z" fill="white"/>
<path d="M214.811 69.2251C218.444 69.2251 221.344 67.7603 223.365 66.0318V57.4188H214.635V60.5535H219.879V64.3912C218.619 65.3287 216.862 65.9439 214.928 65.9439C210.739 65.9439 207.956 62.8386 207.956 58.6199C207.956 54.6357 210.827 51.3252 214.606 51.3252C217.213 51.3252 218.766 52.1748 220.348 53.5224L222.633 50.7979C220.524 49.0108 218.326 48.0148 214.752 48.0148C208.571 48.0148 204.177 52.8779 204.177 58.6199C204.177 64.6549 208.395 69.2251 214.811 69.2251Z" fill="white"/>
<path d="M48.6526 108.102H50.483C51.5325 108.102 52.2405 108.148 52.607 108.239C53.1318 108.368 53.5608 108.635 53.894 109.039C54.2271 109.439 54.3937 109.943 54.3937 110.551C54.3937 111.163 54.2313 111.669 53.9065 112.069C53.5816 112.465 53.1339 112.731 52.5633 112.869C52.1468 112.968 51.368 113.018 50.2269 113.018H49.5709V117.292H48.6526V108.102ZM49.5709 108.995V112.119L51.1265 112.138C51.7554 112.138 52.2156 112.081 52.5071 111.969C52.7986 111.852 53.0277 111.667 53.1943 111.413C53.3609 111.155 53.4442 110.867 53.4442 110.551C53.4442 110.243 53.3609 109.961 53.1943 109.707C53.0277 109.449 52.807 109.266 52.5321 109.158C52.2614 109.049 51.8157 108.995 51.1952 108.995H49.5709ZM55.7556 110.495H56.649V111.488C56.9155 111.096 57.1966 110.805 57.4923 110.613C57.788 110.418 58.0962 110.32 58.4169 110.32C58.6585 110.32 58.9167 110.397 59.1916 110.551L58.7355 111.288C58.5523 111.209 58.3982 111.169 58.2732 111.169C57.9817 111.169 57.7006 111.29 57.4299 111.532C57.1592 111.769 56.953 112.14 56.8114 112.644C56.7031 113.031 56.649 113.814 56.649 114.993V117.292H55.7556V110.495ZM63.1523 110.32C64.1976 110.32 65.0639 110.699 65.7511 111.457C66.3758 112.148 66.6882 112.966 66.6882 113.912C66.6882 114.861 66.3571 115.692 65.6949 116.404C65.0368 117.112 64.1893 117.466 63.1523 117.466C62.1111 117.466 61.2594 117.112 60.5972 116.404C59.9391 115.692 59.6101 114.861 59.6101 113.912C59.6101 112.971 59.9225 112.154 60.5472 111.463C61.2344 110.701 62.1027 110.32 63.1523 110.32ZM63.1523 111.176C62.4276 111.176 61.805 111.444 61.2844 111.981C60.7638 112.519 60.5035 113.168 60.5035 113.931C60.5035 114.422 60.6222 114.88 60.8596 115.305C61.0969 115.73 61.4176 116.059 61.8216 116.292C62.2256 116.521 62.6692 116.636 63.1523 116.636C63.6354 116.636 64.0789 116.521 64.4829 116.292C64.8869 116.059 65.2076 115.73 65.445 115.305C65.6824 114.88 65.8011 114.422 65.8011 113.931C65.8011 113.168 65.5387 112.519 65.0139 111.981C64.4933 111.444 63.8728 111.176 63.1523 111.176ZM68.6435 107.696C68.8434 107.696 69.0121 107.767 69.1495 107.908C69.2911 108.05 69.3619 108.221 69.3619 108.421C69.3619 108.616 69.2911 108.785 69.1495 108.927C69.0121 109.068 68.8434 109.139 68.6435 109.139C68.4436 109.139 68.2729 109.068 68.1313 108.927C67.9938 108.785 67.9251 108.616 67.9251 108.421C67.9251 108.221 67.9938 108.05 68.1313 107.908C68.2729 107.767 68.4436 107.696 68.6435 107.696ZM68.2125 110.495H69.0996V118.316C69.0996 118.887 68.9954 119.301 68.7872 119.559C68.5831 119.822 68.302 119.953 67.9438 119.953C67.6481 119.953 67.315 119.882 66.9443 119.74V118.953C67.1775 119.074 67.3878 119.134 67.5753 119.134C67.8127 119.134 67.9897 119.037 68.1063 118.841C68.1771 118.716 68.2125 118.456 68.2125 118.06V110.495ZM76.6399 115.036L77.3771 115.424C77.1355 115.898 76.8565 116.282 76.5399 116.573C76.2234 116.865 75.8673 117.087 75.4717 117.242C75.076 117.391 74.6283 117.466 74.1285 117.466C73.0207 117.466 72.1544 117.104 71.5297 116.379C70.905 115.651 70.5926 114.828 70.5926 113.912C70.5926 113.05 70.8571 112.281 71.386 111.607C72.0566 110.749 72.9541 110.32 74.0786 110.32C75.2364 110.32 76.1609 110.759 76.8523 111.638C77.3437 112.258 77.5936 113.033 77.602 113.962H71.4922C71.5089 114.753 71.7609 115.403 72.2481 115.911C72.7354 116.415 73.3372 116.667 74.0536 116.667C74.3992 116.667 74.7345 116.606 75.0594 116.486C75.3884 116.365 75.6674 116.204 75.8965 116.005C76.1255 115.805 76.3734 115.482 76.6399 115.036ZM76.6399 113.206C76.5233 112.739 76.3525 112.367 76.1276 112.088C75.9069 111.809 75.6133 111.584 75.2468 111.413C74.8803 111.242 74.495 111.157 74.0911 111.157C73.4247 111.157 72.852 111.371 72.3731 111.8C72.0232 112.113 71.7588 112.581 71.5797 113.206H76.6399ZM85.8357 111.906L85.1423 112.338C84.5426 111.542 83.7242 111.144 82.6872 111.144C81.8584 111.144 81.1691 111.411 80.6193 111.944C80.0738 112.477 79.801 113.125 79.801 113.887C79.801 114.382 79.9259 114.849 80.1758 115.286C80.4298 115.723 80.7755 116.063 81.2128 116.304C81.6543 116.546 82.1478 116.667 82.6934 116.667C83.6929 116.667 84.5092 116.269 85.1423 115.474L85.8357 115.93C85.5109 116.417 85.0736 116.796 84.5238 117.067C83.9782 117.333 83.3556 117.466 82.6559 117.466C81.5814 117.466 80.6901 117.125 79.9821 116.442C79.2741 115.759 78.9201 114.928 78.9201 113.949C78.9201 113.291 79.0846 112.681 79.4136 112.119C79.7468 111.552 80.2029 111.111 80.7818 110.794C81.3607 110.478 82.0083 110.32 82.7246 110.32C83.1744 110.32 83.6076 110.388 84.024 110.526C84.4447 110.663 84.8008 110.842 85.0923 111.063C85.3838 111.284 85.6317 111.565 85.8357 111.906ZM88.2846 107.971H89.1655V110.495H90.5523V111.244H89.1655V117.292H88.2846V111.244H87.0914V110.495H88.2846V107.971Z" fill="white"/>
<path d="M96.3142 108.042H98.0371L100.175 114.493L102.344 108.042H104.042L105.601 117.291H103.904L102.91 111.45L100.942 117.291H99.3889L97.446 111.45L96.4337 117.291H94.7171L96.3142 108.042ZM109.833 108.042H111.619L115.177 117.291H113.348L112.625 115.386H108.852L108.097 117.291H106.268L109.833 108.042ZM110.738 110.494L109.506 113.669H111.964L110.738 110.494ZM116.554 108.042H118.24L122.207 114.128V108.042H123.968V117.291H122.276L118.315 111.223V117.291H116.554V108.042ZM130.947 110.45H132.657V117.291H130.947V116.568C130.612 116.887 130.274 117.117 129.935 117.26C129.599 117.398 129.235 117.467 128.841 117.467C127.956 117.467 127.191 117.125 126.546 116.442C125.9 115.755 125.577 114.902 125.577 113.883C125.577 112.827 125.89 111.961 126.514 111.286C127.139 110.611 127.897 110.274 128.79 110.274C129.201 110.274 129.587 110.351 129.947 110.507C130.308 110.662 130.641 110.894 130.947 111.204V110.45ZM129.142 111.858C128.61 111.858 128.168 112.047 127.816 112.424C127.464 112.797 127.288 113.277 127.288 113.864C127.288 114.455 127.466 114.942 127.822 115.323C128.183 115.704 128.625 115.895 129.149 115.895C129.689 115.895 130.138 115.709 130.494 115.336C130.851 114.958 131.029 114.466 131.029 113.858C131.029 113.263 130.851 112.781 130.494 112.412C130.138 112.043 129.687 111.858 129.142 111.858ZM139.448 110.45H141.158V116.31C141.158 117.467 140.926 118.318 140.46 118.863C139.836 119.601 138.895 119.97 137.637 119.97C136.966 119.97 136.403 119.886 135.946 119.718C135.489 119.55 135.103 119.303 134.789 118.976C134.474 118.653 134.242 118.259 134.091 117.794H135.983C136.151 117.987 136.367 118.131 136.631 118.228C136.895 118.328 137.207 118.379 137.568 118.379C138.029 118.379 138.4 118.308 138.681 118.165C138.962 118.022 139.159 117.838 139.272 117.612C139.389 117.385 139.448 116.995 139.448 116.442C139.146 116.744 138.83 116.962 138.499 117.096C138.167 117.226 137.792 117.291 137.373 117.291C136.455 117.291 135.68 116.96 135.047 116.298C134.414 115.635 134.097 114.797 134.097 113.782C134.097 112.697 134.433 111.825 135.103 111.167C135.711 110.572 136.436 110.274 137.279 110.274C137.673 110.274 138.044 110.347 138.392 110.494C138.744 110.637 139.096 110.873 139.448 111.204V110.45ZM137.669 111.877C137.128 111.877 136.681 112.06 136.329 112.424C135.977 112.785 135.801 113.24 135.801 113.789C135.801 114.359 135.981 114.826 136.342 115.191C136.702 115.556 137.155 115.738 137.7 115.738C138.232 115.738 138.67 115.56 139.014 115.203C139.362 114.847 139.536 114.38 139.536 113.801C139.536 113.231 139.362 112.768 139.014 112.412C138.666 112.055 138.218 111.877 137.669 111.877ZM149.747 114.367H144.233C144.313 114.853 144.524 115.241 144.868 115.53C145.216 115.815 145.658 115.958 146.195 115.958C146.836 115.958 147.387 115.734 147.848 115.285L149.295 115.964C148.934 116.476 148.502 116.855 147.999 117.102C147.496 117.346 146.899 117.467 146.207 117.467C145.134 117.467 144.26 117.13 143.585 116.455C142.91 115.776 142.573 114.927 142.573 113.908C142.573 112.864 142.908 111.999 143.579 111.311C144.254 110.62 145.099 110.274 146.113 110.274C147.19 110.274 148.066 110.62 148.741 111.311C149.416 111.999 149.754 112.908 149.754 114.04L149.747 114.367ZM148.024 113.015C147.911 112.634 147.687 112.324 147.352 112.085C147.021 111.846 146.635 111.726 146.195 111.726C145.717 111.726 145.298 111.861 144.937 112.129C144.711 112.296 144.501 112.592 144.308 113.015H148.024ZM151.131 110.45H152.853V111.236C153.147 110.913 153.472 110.672 153.828 110.513C154.189 110.354 154.58 110.274 155.004 110.274C155.431 110.274 155.817 110.379 156.161 110.588C156.505 110.798 156.781 111.104 156.991 111.506C157.263 111.104 157.596 110.798 157.991 110.588C158.389 110.379 158.823 110.274 159.292 110.274C159.778 110.274 160.206 110.387 160.575 110.613C160.944 110.84 161.208 111.135 161.367 111.5C161.531 111.865 161.612 112.458 161.612 113.279V117.291H159.883V113.82C159.883 113.045 159.787 112.521 159.594 112.248C159.401 111.972 159.112 111.833 158.726 111.833C158.433 111.833 158.169 111.917 157.934 112.085C157.703 112.252 157.532 112.485 157.418 112.783C157.305 113.076 157.249 113.55 157.249 114.204V117.291H155.519V113.977C155.519 113.365 155.473 112.923 155.381 112.651C155.293 112.374 155.159 112.169 154.979 112.034C154.798 111.9 154.58 111.833 154.325 111.833C154.04 111.833 153.78 111.919 153.545 112.091C153.315 112.259 153.141 112.496 153.023 112.802C152.91 113.108 152.853 113.59 152.853 114.248V117.291H151.131V110.45ZM170.107 114.367H164.593C164.672 114.853 164.884 115.241 165.228 115.53C165.576 115.815 166.018 115.958 166.554 115.958C167.196 115.958 167.747 115.734 168.208 115.285L169.654 115.964C169.294 116.476 168.862 116.855 168.359 117.102C167.856 117.346 167.259 117.467 166.567 117.467C165.494 117.467 164.62 117.13 163.945 116.455C163.27 115.776 162.933 114.927 162.933 113.908C162.933 112.864 163.268 111.999 163.939 111.311C164.614 110.62 165.458 110.274 166.473 110.274C167.55 110.274 168.426 110.62 169.101 111.311C169.776 111.999 170.113 112.908 170.113 114.04L170.107 114.367ZM168.384 113.015C168.271 112.634 168.047 112.324 167.711 112.085C167.38 111.846 166.995 111.726 166.554 111.726C166.077 111.726 165.657 111.861 165.297 112.129C165.071 112.296 164.861 112.592 164.668 113.015H168.384ZM171.503 110.45H173.213V111.148C173.603 110.821 173.955 110.595 174.269 110.469C174.588 110.339 174.913 110.274 175.244 110.274C175.923 110.274 176.499 110.511 176.973 110.984C177.371 111.387 177.57 111.982 177.57 112.77V117.291H175.873V114.292C175.873 113.474 175.835 112.932 175.76 112.663C175.688 112.395 175.561 112.192 175.376 112.053C175.196 111.911 174.972 111.84 174.703 111.84C174.355 111.84 174.056 111.957 173.804 112.192C173.557 112.422 173.385 112.743 173.289 113.154C173.238 113.367 173.213 113.831 173.213 114.543V117.291H171.503V110.45ZM179.444 107.929H181.154V110.45H182.173V111.928H181.154V117.291H179.444V111.928H178.564V110.45H179.444V107.929Z" fill="white"/>
<path d="M195.053 109.55L194.332 110.233C193.813 109.723 193.244 109.337 192.624 109.076C192.009 108.81 191.408 108.677 190.822 108.677C190.092 108.677 189.397 108.857 188.735 109.215C188.077 109.573 187.567 110.06 187.204 110.676C186.842 111.287 186.66 111.934 186.66 112.617C186.66 113.317 186.848 113.983 187.223 114.616C187.599 115.244 188.117 115.739 188.779 116.102C189.441 116.46 190.166 116.64 190.955 116.64C191.912 116.64 192.721 116.37 193.383 115.83C194.045 115.29 194.437 114.591 194.559 113.731H191.593V112.832H195.603C195.594 114.27 195.166 115.413 194.319 116.26C193.476 117.103 192.346 117.525 190.929 117.525C189.209 117.525 187.847 116.939 186.844 115.767C186.072 114.865 185.687 113.821 185.687 112.636C185.687 111.755 185.908 110.935 186.351 110.176C186.793 109.417 187.4 108.825 188.172 108.399C188.943 107.969 189.816 107.754 190.79 107.754C191.579 107.754 192.321 107.898 193.016 108.184C193.712 108.467 194.391 108.922 195.053 109.55ZM196.893 110.41H197.797V111.416C198.067 111.02 198.352 110.724 198.651 110.53C198.95 110.332 199.262 110.233 199.587 110.233C199.832 110.233 200.093 110.311 200.371 110.467L199.91 111.213C199.724 111.133 199.568 111.093 199.442 111.093C199.146 111.093 198.862 111.216 198.588 111.46C198.314 111.7 198.105 112.076 197.962 112.586C197.852 112.978 197.797 113.771 197.797 114.964V117.291H196.893V110.41ZM204.381 110.233C205.439 110.233 206.316 110.617 207.012 111.384C207.644 112.084 207.96 112.913 207.96 113.87C207.96 114.831 207.625 115.672 206.955 116.393C206.289 117.11 205.431 117.468 204.381 117.468C203.327 117.468 202.465 117.11 201.794 116.393C201.128 115.672 200.795 114.831 200.795 113.87C200.795 112.917 201.111 112.09 201.744 111.391C202.439 110.619 203.318 110.233 204.381 110.233ZM204.381 111.1C203.647 111.1 203.017 111.372 202.49 111.915C201.963 112.459 201.699 113.117 201.699 113.889C201.699 114.386 201.819 114.85 202.06 115.28C202.3 115.71 202.625 116.043 203.034 116.279C203.443 116.511 203.892 116.627 204.381 116.627C204.87 116.627 205.319 116.511 205.728 116.279C206.137 116.043 206.461 115.71 206.702 115.28C206.942 114.85 207.062 114.386 207.062 113.889C207.062 113.117 206.797 112.459 206.265 111.915C205.738 111.372 205.11 111.1 204.381 111.1ZM209.497 110.41H210.389V113.623C210.389 114.407 210.431 114.947 210.515 115.242C210.642 115.664 210.882 115.997 211.236 116.241C211.595 116.486 212.02 116.608 212.514 116.608C213.007 116.608 213.424 116.49 213.766 116.254C214.112 116.014 214.35 115.699 214.48 115.312C214.569 115.046 214.613 114.483 214.613 113.623V110.41H215.518V113.787C215.518 114.736 215.406 115.451 215.182 115.931C214.963 116.412 214.63 116.789 214.183 117.063C213.741 117.333 213.184 117.468 212.514 117.468C211.843 117.468 211.283 117.333 210.831 117.063C210.385 116.789 210.049 116.41 209.826 115.925C209.607 115.436 209.497 114.702 209.497 113.724V110.41ZM217.503 110.41H218.383V111.675C218.732 111.195 219.135 110.834 219.59 110.594C220.046 110.353 220.554 110.233 221.115 110.233C222.093 110.233 222.93 110.585 223.625 111.289C224.321 111.993 224.669 112.841 224.669 113.832C224.669 114.844 224.323 115.704 223.632 116.412C222.944 117.116 222.114 117.468 221.14 117.468C220.592 117.468 220.088 117.354 219.628 117.127C219.169 116.899 218.754 116.56 218.383 116.108V119.808H217.503V110.41ZM221.045 111.087C220.278 111.087 219.63 111.355 219.103 111.89C218.581 112.426 218.319 113.092 218.319 113.889C218.319 114.411 218.435 114.882 218.667 115.299C218.903 115.716 219.238 116.047 219.673 116.292C220.111 116.536 220.573 116.659 221.058 116.659C221.534 116.659 221.981 116.536 222.398 116.292C222.82 116.043 223.155 115.697 223.404 115.255C223.653 114.812 223.777 114.348 223.777 113.863C223.777 113.374 223.653 112.91 223.404 112.472C223.159 112.034 222.828 111.694 222.411 111.454C221.994 111.209 221.538 111.087 221.045 111.087Z" fill="white"/>
<line x1="85.0321" y1="88.4732" x2="188.154" y2="88.4732" stroke="white" stroke-width="1.17184"/>
</svg>
