<svg width="1920" height="1569" viewBox="0 0 1920 1569" fill="none" xmlns="http://www.w3.org/2000/svg">
<mask id="mask0" mask-type="alpha" maskUnits="userSpaceOnUse" x="0" y="0" width="1921" height="1569">
<path d="M0 0H1920V1569H0V0Z" fill="url(#paint0_linear)"/>
</mask>
<g mask="url(#mask0)">
<path d="M0 0H1920V1569H0V0Z" fill="url(#paint1_linear)"/>
<g style="mix-blend-mode:overlay" filter="url(#filter0_d)">
<path d="M1475.94 176.972H1528.95V1258L1229.82 1569H949.747L1475.94 1258V176.972Z" fill="url(#paint2_linear)" fill-opacity="0.56"/>
<path d="M1502.95 0L1567.96 176.972H1437.93L1502.95 0Z" fill="url(#paint3_linear)" fill-opacity="0.56"/>
<path d="M1597.82 414.554H1658.99V1258L1919 1569H1595.42L1597.82 1258V945.38V414.554Z" fill="url(#paint4_linear)" fill-opacity="0.56"/>
<path d="M1628.98 210.424L1704 414.554H1553.96L1628.98 210.424Z" fill="url(#paint5_linear)" fill-opacity="0.56"/>
<path d="M1296.69 340.562H1328.5V1258L213.056 1569H0L1296.69 1258V340.562Z" fill="url(#paint6_linear)" fill-opacity="0.56"/>
<path d="M1312.9 206.108L1351.91 340.562H1273.89L1312.9 206.108Z" fill="url(#paint7_linear)" fill-opacity="0.56"/>
<path d="M1381.29 564.106H1404.12V1258L570.149 1569H433.113L1381.29 1258V564.106Z" fill="url(#paint8_linear)" fill-opacity="0.56"/>
<path d="M1392.92 487.752L1420.93 564.106H1364.91L1392.92 487.752Z" fill="url(#paint9_linear)" fill-opacity="0.56"/>
</g>
</g>
<defs>
<filter id="filter0_d" x="-100" y="-100" width="2119" height="1769" filterUnits="userSpaceOnUse" color-interpolation-filters="sRGB">
<feFlood flood-opacity="0" result="BackgroundImageFix"/>
<feColorMatrix in="SourceAlpha" type="matrix" values="0 0 0 0 0 0 0 0 0 0 0 0 0 0 0 0 0 0 127 0"/>
<feOffset/>
<feGaussianBlur stdDeviation="50"/>
<feColorMatrix type="matrix" values="0 0 0 0 1 0 0 0 0 1 0 0 0 0 1 0 0 0 0.1 0"/>
<feBlend mode="normal" in2="BackgroundImageFix" result="effect1_dropShadow"/>
<feBlend mode="normal" in="SourceGraphic" in2="effect1_dropShadow" result="shape"/>
</filter>
<linearGradient id="paint0_linear" x1="0" y1="1569" x2="2212.5" y2="-236.5" gradientUnits="userSpaceOnUse">
<stop offset="0.253439" stop-color="#004531"/>
<stop offset="1" stop-color="#0F694F"/>
</linearGradient>
<linearGradient id="paint1_linear" x1="0" y1="1569" x2="2212.5" y2="-236.5" gradientUnits="userSpaceOnUse">
<stop offset="0.253439" stop-color="#004531"/>
<stop offset="1" stop-color="#0F694F"/>
</linearGradient>
<linearGradient id="paint2_linear" x1="397.604" y1="-22.6676" x2="397.604" y2="1569" gradientUnits="userSpaceOnUse">
<stop stop-color="#717171"/>
<stop offset="0.63589" stop-color="#696969"/>
<stop offset="1" stop-color="#717171"/>
</linearGradient>
<linearGradient id="paint3_linear" x1="397.604" y1="-22.6676" x2="397.604" y2="1569" gradientUnits="userSpaceOnUse">
<stop stop-color="#717171"/>
<stop offset="0.63589" stop-color="#696969"/>
<stop offset="1" stop-color="#717171"/>
</linearGradient>
<linearGradient id="paint4_linear" x1="397.604" y1="-22.6676" x2="397.604" y2="1569" gradientUnits="userSpaceOnUse">
<stop stop-color="#717171"/>
<stop offset="0.63589" stop-color="#696969"/>
<stop offset="1" stop-color="#717171"/>
</linearGradient>
<linearGradient id="paint5_linear" x1="397.604" y1="-22.6676" x2="397.604" y2="1569" gradientUnits="userSpaceOnUse">
<stop stop-color="#717171"/>
<stop offset="0.63589" stop-color="#696969"/>
<stop offset="1" stop-color="#717171"/>
</linearGradient>
<linearGradient id="paint6_linear" x1="397.604" y1="-22.6676" x2="397.604" y2="1569" gradientUnits="userSpaceOnUse">
<stop stop-color="#717171"/>
<stop offset="0.63589" stop-color="#696969"/>
<stop offset="1" stop-color="#717171"/>
</linearGradient>
<linearGradient id="paint7_linear" x1="397.604" y1="-22.6676" x2="397.604" y2="1569" gradientUnits="userSpaceOnUse">
<stop stop-color="#717171"/>
<stop offset="0.63589" stop-color="#696969"/>
<stop offset="1" stop-color="#717171"/>
</linearGradient>
<linearGradient id="paint8_linear" x1="397.604" y1="-22.6676" x2="397.604" y2="1569" gradientUnits="userSpaceOnUse">
<stop stop-color="#717171"/>
<stop offset="0.63589" stop-color="#696969"/>
<stop offset="1" stop-color="#717171"/>
</linearGradient>
<linearGradient id="paint9_linear" x1="397.604" y1="-22.6676" x2="397.604" y2="1569" gradientUnits="userSpaceOnUse">
<stop stop-color="#717171"/>
<stop offset="0.63589" stop-color="#696969"/>
<stop offset="1" stop-color="#717171"/>
</linearGradient>
</defs>
</svg>
